<svg width="796" height="500" viewBox="0 0 796 500" fill="none" xmlns="http://www.w3.org/2000/svg">
<path d="M527.363 117.146H349.232L250.491 116.898L193.56 118.642L181.55 121.218L164.927 124.783L151.148 130.219L139.639 136.585L127.307 144.943L120.382 152.393L112.537 159.314L106.648 166.755L97.5805 178.334L88.7789 192.591L82.8241 209.989L79.6242 223.015L76.3473 236.934L75 253.605L75.6168 271.186L77.7964 281.931L80.5874 298.453L85.7601 312.501L92.8803 326.919L101.254 339.352L115.263 355.172L130.517 367.987L149.145 379.855L175.857 388.737L200.414 391.909L287.471 392.14L303.77 339.887L196.752 337.984L185.396 335.671L173.951 331.59L157.331 320.009L144.792 305.107L134.497 283.213L131.462 265.011L131.471 248.948L133.635 235.632L140.159 216.517L150.007 201.796L160.048 192.215L170.295 184.098L185.274 177.255L199.121 173.671L356.158 172.19L339.356 240.707L321.261 316.202L308.767 360.4L308.014 371.836L310.391 381.924L318.42 389.011L329.231 391.697L346.247 392.14L364.775 391.274L382.914 388.993L403.848 385.044L421.429 380.701L449.246 371.369L479.375 358.285L540.984 320.009L588.16 281.944L629.144 235.898L653.861 250.898V182.975L572.609 203.398L600.113 218.898L589.021 230.556L560.587 256.99L512.765 294.421L475.713 316.414L450.294 327.622L419.059 336.715L387.609 339.887L376.486 339.277L372.314 335.235L382.439 293.363L404.842 207.294L411.735 180.438L416.259 174.305L424.445 171.979L490.182 172.424C490.182 172.424 491.583 166.924 492.729 162.424C493.875 157.924 493.238 160.424 496.294 153.424C499.35 146.424 498.438 147.924 503.934 139.424C509.43 130.924 509.027 132.924 514.12 127.424C519.214 121.924 527.363 117.146 527.363 117.146Z" fill="url(#paint0_linear_710_12)"/>
<path d="M721.439 117.395H564.618L548.427 121.107L537.427 127.257L527.135 136.215L517.064 150.165L509.041 166.244L503.818 183.253L501.07 202.617L502.345 217.29L504.948 226.514L508.633 235.464L515.288 243.22L525.141 252.915L540.06 262.675L585.082 224.399L564.725 213.085L561.303 209.072L559.429 204.49L558.263 197.013L559.382 187.676L562.894 180.624L564.855 177.048L568.931 173.91L574.634 172.589L641.736 172.166H708.299" fill="#162D50"/>
<path d="M721.439 117.395H564.618L548.427 121.107L537.427 127.257L527.135 136.215L517.064 150.165L509.041 166.244L503.818 183.253L501.07 202.617L502.345 217.29L504.948 226.514L508.633 235.464L515.288 243.22L525.141 252.915L540.06 262.675L585.082 224.399L564.725 213.085L561.303 209.072L559.429 204.49L558.263 197.013L559.382 187.676L562.894 180.624L564.855 177.048L568.931 173.91L574.634 172.589L641.736 172.166H708.299" fill="#002F6C"/>
<path d="M590.944 290.678L611.317 268.898L631.181 248.398L648.498 257.898L669.89 272.025L678.548 281.898L685.169 293.898L687.659 310.768C687.659 310.768 688.46 320.898 685.169 334.898C681.878 348.898 672.946 360.398 672.946 360.398L658.793 374.421L640.267 385.84L626.373 391.233L602.139 394.088L529.114 394.722L425.398 394.088L461.051 379.525L485.499 367.525L504.853 355.525L519.114 345.525L524.717 340.797L575.212 340.163L606.447 340.797L617.06 337.943L624.004 331.281L626.586 324.407L627.543 317.469L625.562 311.49L623.074 307.881L619.803 304.953L606.447 297.898L590.944 290.678Z" fill="#002F6C"/>
<path d="M511.412 398.969L529.614 399.074L517.336 406.793L503.334 415.252L486.962 423.394L460.789 434.496L425.677 445.492L382.486 453.423L334.233 455.22L307.63 452.365L276.395 445.915L251.191 436.611L220.925 418.636L198.953 399.392L212.417 399.074L219.525 405.842L232.342 416.204L246.344 424.451L269.178 434.496L286.842 439.994L305.906 444.329L323.355 446.655L349.636 447.078L359.76 447.29L383.671 445.492L409.736 440.734L447.326 430.372L470.914 421.173L494.502 410.071L511.412 398.969Z" fill="#002F6C"/>
<path d="M206.815 181.787L217.693 182.104L209.185 193.101L198.414 208.327L189.151 225.033L182.581 240.047L178.165 254.639L174.072 272.72L173.21 284.456L172.672 301.48L175.364 321.781L166.102 316.917L164.594 297.568L165.671 276.103L169.979 253.582L176.118 235.501L188.074 209.596L206.815 181.787Z" fill="#002F6C"/>
<path d="M616.328 109.794L625.924 110.393L614.957 93.7944L596.222 76.5981L571.698 62.243L536.969 50.1308L495.538 44.1495L453.954 44L414.655 50.2804L368.807 63.2897L330.269 79.1402L304.984 93.0467C304.984 93.0467 277.262 110.243 278.023 110.243C278.785 110.243 292.341 110.692 292.341 110.692L308.487 100.523L336.362 85.271L357.687 76L374.899 69.7196L402.165 61.3458L421.51 56.7103L447.252 52.972L469.186 51.1776L498.279 50.8785L519.757 53.8692L549.459 61.0467L568.804 69.5701L588.149 79.8878L601.705 91.4019L616.328 109.794Z" fill="#002F6C"/>
<path d="M527.363 117.146H349.232L250.491 116.898L193.56 118.642L181.55 121.218L164.927 124.783L151.148 130.219L139.639 136.585L127.307 144.943L120.382 152.393L112.537 159.314L106.648 166.755L97.5805 178.334L88.7789 192.591L82.8241 209.989L79.6242 223.015L76.3473 236.934L75 253.605L75.6168 271.186L77.7964 281.931L80.5874 298.453L85.7601 312.501L92.8803 326.919L101.254 339.352L115.263 355.172L130.517 367.987L149.145 379.855L175.857 388.737L200.414 391.909L287.471 392.14L303.77 339.887L196.752 337.984L185.396 335.671L173.951 331.59L157.331 320.009L144.792 305.107L134.497 283.213L131.462 265.011L131.471 248.948L133.635 235.632L140.159 216.517L150.007 201.796L160.048 192.215L170.295 184.098L185.274 177.255L199.121 173.671L356.158 172.19L339.356 240.707L321.261 316.202L308.767 360.4L308.014 371.836L310.391 381.924L318.42 389.011L329.231 391.697L346.247 392.14L364.775 391.274L382.914 388.993L403.848 385.044L421.429 380.701L449.246 371.369L479.375 358.285L540.984 320.009L588.16 281.944L629.144 235.898L653.861 250.898V182.975L572.609 203.398L600.113 218.898L589.021 230.556L560.587 256.99L512.765 294.421L475.713 316.414L450.294 327.622L419.059 336.715L387.609 339.887L376.486 339.277L372.314 335.235L382.439 293.363L404.842 207.294L411.735 180.438L416.259 174.305L424.445 171.979L490.182 172.424C490.182 172.424 491.583 166.924 492.729 162.424C493.875 157.924 493.238 160.424 496.294 153.424C499.35 146.424 498.438 147.924 503.934 139.424C509.43 130.924 509.027 132.924 514.12 127.424C519.214 121.924 527.363 117.146 527.363 117.146Z" fill="url(#paint1_linear_710_12)"/>
<path d="M721.439 117.395H564.618L548.427 121.107L537.427 127.257L527.135 136.215L517.064 150.165L509.041 166.244L503.818 183.253L501.07 202.617L502.345 217.29L504.948 226.514L508.633 235.464L515.288 243.22L525.141 252.915L540.06 262.675L585.082 224.399L564.725 213.085L561.303 209.072L559.429 204.49L558.263 197.013L559.382 187.676L562.894 180.624L564.855 177.048L568.931 173.91L574.634 172.589L641.736 172.166H708.299" fill="#162D50"/>
<path d="M721.439 117.395H564.618L548.427 121.107L537.427 127.257L527.135 136.215L517.064 150.165L509.041 166.244L503.818 183.253L501.07 202.617L502.345 217.29L504.948 226.514L508.633 235.464L515.288 243.22L525.141 252.915L540.06 262.675L585.082 224.399L564.725 213.085L561.303 209.072L559.429 204.49L558.263 197.013L559.382 187.676L562.894 180.624L564.855 177.048L568.931 173.91L574.634 172.589L641.736 172.166H708.299" fill="white"/>
<path d="M590.944 290.678L611.317 268.898L631.181 248.398L648.498 257.898L669.89 272.025L678.548 281.898L685.169 293.898L687.659 310.768C687.659 310.768 688.46 320.898 685.169 334.898C681.878 348.898 672.946 360.398 672.946 360.398L658.793 374.421L640.267 385.84L626.373 391.233L602.139 394.088L529.114 394.722L425.398 394.088L461.051 379.525L485.499 367.525L504.853 355.525L519.114 345.525L524.717 340.797L575.212 340.163L606.447 340.797L617.06 337.943L624.004 331.281L626.586 324.407L627.543 317.469L625.562 311.49L623.074 307.881L619.803 304.953L606.447 297.898L590.944 290.678Z" fill="white"/>
<path d="M511.412 398.969L529.614 399.074L517.336 406.793L503.334 415.252L486.962 423.394L460.789 434.496L425.677 445.492L382.486 453.423L334.233 455.22L307.63 452.365L276.395 445.915L251.191 436.611L220.925 418.636L198.953 399.392L212.417 399.074L219.525 405.842L232.342 416.204L246.344 424.451L269.178 434.496L286.842 439.994L305.906 444.329L323.355 446.655L349.636 447.078L359.76 447.29L383.671 445.492L409.736 440.734L447.326 430.372L470.914 421.173L494.502 410.071L511.412 398.969Z" fill="white"/>
<path d="M206.815 181.787L217.693 182.104L209.185 193.101L198.414 208.327L189.151 225.033L182.581 240.047L178.165 254.639L174.072 272.72L173.21 284.456L172.672 301.48L175.364 321.781L166.102 316.917L164.594 297.568L165.671 276.103L169.979 253.582L176.118 235.501L188.074 209.596L206.815 181.787Z" fill="white"/>
<path d="M616.328 109.794L625.924 110.393L614.957 93.7944L596.222 76.5981L571.698 62.243L536.969 50.1308L495.538 44.1495L453.954 44L414.655 50.2804L368.807 63.2897L330.269 79.1402L304.984 93.0467C304.984 93.0467 277.262 110.243 278.023 110.243C278.785 110.243 292.341 110.692 292.341 110.692L308.487 100.523L336.362 85.271L357.687 76L374.899 69.7196L402.165 61.3458L421.51 56.7103L447.252 52.972L469.186 51.1776L498.279 50.8785L519.757 53.8692L549.459 61.0467L568.804 69.5701L588.149 79.8878L601.705 91.4019L616.328 109.794Z" fill="white"/>
<defs>
<linearGradient id="paint0_linear_710_12" x1="483.929" y1="132.5" x2="691.606" y2="181.529" gradientUnits="userSpaceOnUse">
<stop stop-color="#002F6C"/>
<stop offset="0.754023" stop-color="#FFCC00"/>
</linearGradient>
<linearGradient id="paint1_linear_710_12" x1="483.929" y1="132.5" x2="691.606" y2="181.529" gradientUnits="userSpaceOnUse">
<stop stop-color="white"/>
<stop offset="0.754023" stop-color="#FFCC00"/>
</linearGradient>
</defs>
</svg>
