<svg width="12" height="12" viewBox="0 0 12 12" fill="none" xmlns="http://www.w3.org/2000/svg">
<path d="M1.59323 8.41313C1.88898 9.59558 2.03686 10.1865 2.47723 10.531C2.91815 10.875 3.52753 10.875 4.74628 10.875H7.25419C8.47294 10.875 9.08232 10.875 9.52377 10.531C9.96415 10.1865 10.112 9.59558 10.4072 8.41313C10.872 6.55413 11.1044 5.62517 10.6169 5.00008C10.1288 4.375 9.17061 4.375 7.25473 4.375H4.74628C2.82986 4.375 1.87219 4.375 1.38415 5.00008C1.09761 5.36679 1.05915 5.83858 1.17073 6.54167" stroke="black" stroke-linecap="round"/>
<path d="M10.0625 4.64567L9.67792 3.23463C9.5295 2.69025 9.45529 2.41834 9.30308 2.21305C9.15132 2.00909 8.94521 1.85197 8.70833 1.75967C8.47 1.6665 8.18833 1.6665 7.625 1.6665M1.9375 4.64567L2.32208 3.23463C2.4705 2.69025 2.54471 2.41834 2.69692 2.21305C2.84868 2.00909 3.05479 1.85197 3.29167 1.75967C3.53 1.6665 3.81167 1.6665 4.375 1.6665" stroke="black"/>
<path d="M4.375 1.66667C4.375 1.52301 4.43207 1.38523 4.53365 1.28365C4.63523 1.18207 4.77301 1.125 4.91667 1.125H7.08333C7.22699 1.125 7.36477 1.18207 7.46635 1.28365C7.56793 1.38523 7.625 1.52301 7.625 1.66667C7.625 1.81033 7.56793 1.9481 7.46635 2.04968C7.36477 2.15126 7.22699 2.20833 7.08333 2.20833H4.91667C4.77301 2.20833 4.63523 2.15126 4.53365 2.04968C4.43207 1.9481 4.375 1.81033 4.375 1.66667Z" stroke="black"/>
</svg>
