<svg width="24" height="24" viewBox="0 0 24 24" fill="none" xmlns="http://www.w3.org/2000/svg">
<path d="M4 17C3.71667 17 3.47934 16.904 3.288 16.712C3.09667 16.52 3.00067 16.2827 3 16C2.99934 15.7173 3.09534 15.48 3.288 15.288C3.48067 15.096 3.718 15 4 15H16C16.2833 15 16.521 15.096 16.713 15.288C16.905 15.48 17.0007 15.7173 17 16C16.9993 16.2827 16.9033 16.5203 16.712 16.713C16.5207 16.9057 16.2833 17.0013 16 17H4ZM6 13C5.71667 13 5.47934 12.904 5.288 12.712C5.09667 12.52 5.00067 12.2827 5 12C4.99934 11.7173 5.09534 11.48 5.288 11.288C5.48067 11.096 5.718 11 6 11H18C18.2833 11 18.521 11.096 18.713 11.288C18.905 11.48 19.0007 11.7173 19 12C18.9993 12.2827 18.9033 12.5203 18.712 12.713C18.5207 12.9057 18.2833 13.0013 18 13H6ZM8 9C7.71667 9 7.47934 8.904 7.288 8.712C7.09667 8.52 7.00067 8.28267 7 8C6.99934 7.71733 7.09534 7.48 7.288 7.288C7.48067 7.096 7.718 7 8 7H20C20.2833 7 20.521 7.096 20.713 7.288C20.905 7.48 21.0007 7.71733 21 8C20.9993 8.28267 20.9033 8.52033 20.712 8.713C20.5207 8.90567 20.2833 9.00133 20 9H8Z" fill="white"/>
</svg>
