<svg width="18" height="10" viewBox="0 0 18 10" fill="none" xmlns="http://www.w3.org/2000/svg">
<path d="M1 10C0.71667 10 0.479337 9.904 0.288004 9.712C0.0966702 9.52 0.000670115 9.28267 3.44827e-06 9C-0.000663218 8.71733 0.0953369 8.48 0.288004 8.288C0.48067 8.096 0.718003 8 1 8H13C13.2833 8 13.521 8.096 13.713 8.288C13.905 8.48 14.0007 8.71733 14 9C13.9993 9.28267 13.9033 9.52033 13.712 9.713C13.5207 9.90567 13.2833 10.0013 13 10H1ZM3 6C2.71667 6 2.47934 5.904 2.288 5.712C2.09667 5.52 2.00067 5.28267 2 5C1.99934 4.71733 2.09534 4.48 2.288 4.288C2.48067 4.096 2.718 4 3 4H15C15.2833 4 15.521 4.096 15.713 4.288C15.905 4.48 16.0007 4.71733 16 5C15.9993 5.28267 15.9033 5.52033 15.712 5.713C15.5207 5.90567 15.2833 6.00133 15 6H3ZM5 2C4.71667 2 4.47934 1.904 4.288 1.712C4.09667 1.52 4.00067 1.28267 4 1C3.99934 0.717333 4.09534 0.48 4.288 0.288C4.48067 0.0960001 4.718 0 5 0H17C17.2833 0 17.521 0.0960001 17.713 0.288C17.905 0.48 18.0007 0.717333 18 1C17.9993 1.28267 17.9033 1.52033 17.712 1.713C17.5207 1.90567 17.2833 2.00133 17 2H5Z" fill="black"/>
</svg>
