<svg width="24" height="24" viewBox="0 0 24 24" fill="none" xmlns="http://www.w3.org/2000/svg">
<path d="M4.72787 16.1368C3.18287 14.5908 2.40987 13.8188 2.12287 12.8158C1.83487 11.8128 2.08087 10.7478 2.57287 8.61876L2.85587 7.39076C3.26887 5.59876 3.47587 4.70276 4.08887 4.08876C4.70187 3.47476 5.59887 3.26876 7.39087 2.85576L8.61887 2.57176C10.7489 2.08076 11.8129 1.83476 12.8159 2.12176C13.8189 2.40976 14.5909 3.18276 16.1359 4.72776L17.9659 6.55776C20.6569 9.24776 21.9999 10.5918 21.9999 12.2618C21.9999 13.9328 20.6559 15.2768 17.9669 17.9658C15.2769 20.6558 13.9329 21.9998 12.2619 21.9998C10.5919 21.9998 9.24687 20.6558 6.55787 17.9668L4.72787 16.1368Z" stroke="black" stroke-width="1.5"/>
<path d="M15.3899 15.39C15.9749 14.803 16.0539 13.933 15.5659 13.444C15.0779 12.955 14.2069 13.035 13.6209 13.621C13.0359 14.207 12.1649 14.286 11.6769 13.798C11.1889 13.31 11.2679 12.439 11.8539 11.854M11.8539 11.854L11.4999 11.5M11.8539 11.854C12.1849 11.522 12.6069 11.354 12.9999 11.357M15.7429 15.743L15.3889 15.389C14.9889 15.79 14.4539 15.954 13.9999 15.86" stroke="black" stroke-width="1.5" stroke-linecap="round"/>
<path d="M10.021 10.2931C10.802 9.51207 10.802 8.24574 10.021 7.46469C9.23991 6.68364 7.97358 6.68364 7.19253 7.46469C6.41149 8.24574 6.41148 9.51207 7.19253 10.2931C7.97358 11.0742 9.23991 11.0742 10.021 10.2931Z" stroke="black" stroke-width="1.5"/>
</svg>
